<mxfile host="65bd71144e">
    <diagram id="K32_DQX-Kb6B-GyKlfop" name="Page-1">
        <mxGraphModel dx="1955" dy="830" grid="1" gridSize="10" guides="1" tooltips="1" connect="1" arrows="1" fold="1" page="1" pageScale="1" pageWidth="827" pageHeight="1169" background="#FFFFFF" math="0" shadow="0">
            <root>
                <mxCell id="0"/>
                <mxCell id="1" parent="0"/>
                <mxCell id="2" value="d&lt;sub&gt;1&lt;/sub&gt;" style="rounded=0;whiteSpace=wrap;html=1;fillColor=#CCFFCC;strokeColor=#000000;fontColor=#333333;" parent="1" vertex="1">
                    <mxGeometry x="320" y="320" width="40" height="40" as="geometry"/>
                </mxCell>
                <mxCell id="3" value="d&lt;span style=&quot;font-size: 10px&quot;&gt;&lt;sub&gt;2&lt;/sub&gt;&lt;/span&gt;" style="rounded=0;whiteSpace=wrap;html=1;fillColor=#FFCCCC;strokeColor=#000000;strokeWidth=3;fontColor=#333333;" parent="1" vertex="1">
                    <mxGeometry x="120" y="320" width="40" height="40" as="geometry"/>
                </mxCell>
                <mxCell id="5" value="d&lt;sub&gt;4&lt;/sub&gt;" style="rounded=0;whiteSpace=wrap;html=1;fillColor=#FFCCCC;fontColor=#333333;strokeColor=#030303;" parent="1" vertex="1">
                    <mxGeometry x="360" y="320" width="40" height="40" as="geometry"/>
                </mxCell>
                <mxCell id="6" value="d&lt;sub&gt;5&lt;/sub&gt;" style="rounded=0;whiteSpace=wrap;html=1;fillColor=#CCFFCC;fontColor=#333333;strokeColor=#030303;" parent="1" vertex="1">
                    <mxGeometry x="440" y="320" width="40" height="40" as="geometry"/>
                </mxCell>
                <mxCell id="10" value="d&lt;sub&gt;9&lt;/sub&gt;" style="rounded=0;whiteSpace=wrap;html=1;fillColor=#CCFFCC;strokeColor=#000000;fontColor=#333333;" parent="1" vertex="1">
                    <mxGeometry x="400" y="320" width="40" height="40" as="geometry"/>
                </mxCell>
                <mxCell id="11" value="d&lt;sub&gt;10&lt;/sub&gt;" style="rounded=0;whiteSpace=wrap;html=1;fillColor=#FFCCCC;fontColor=#333333;strokeColor=#030303;" parent="1" vertex="1">
                    <mxGeometry x="480" y="320" width="40" height="40" as="geometry"/>
                </mxCell>
                <mxCell id="4" value="d&lt;span style=&quot;font-size: 10px&quot;&gt;&lt;sub&gt;3&lt;/sub&gt;&lt;/span&gt;" style="rounded=0;whiteSpace=wrap;html=1;fillColor=#CCFFCC;strokeColor=#000000;strokeWidth=3;fontColor=#333333;" parent="1" vertex="1">
                    <mxGeometry x="160" y="320" width="40" height="40" as="geometry"/>
                </mxCell>
                <mxCell id="7" value="d&lt;sub&gt;6&lt;/sub&gt;" style="rounded=0;whiteSpace=wrap;html=1;fillColor=#FFCCCC;fontColor=#333333;strokeColor=#000000;strokeWidth=3;" parent="1" vertex="1">
                    <mxGeometry x="200" y="320" width="40" height="40" as="geometry"/>
                </mxCell>
                <mxCell id="8" value="d&lt;sub&gt;7&lt;/sub&gt;" style="rounded=0;whiteSpace=wrap;html=1;fillColor=#CCFFCC;strokeColor=#000000;strokeWidth=3;fontColor=#333333;" parent="1" vertex="1">
                    <mxGeometry x="240" y="320" width="40" height="40" as="geometry"/>
                </mxCell>
                <mxCell id="9" value="d&lt;sub&gt;8&lt;/sub&gt;" style="rounded=0;whiteSpace=wrap;html=1;fillColor=#FFCCCC;fontColor=#333333;strokeColor=#000000;strokeWidth=3;" parent="1" vertex="1">
                    <mxGeometry x="280" y="320" width="40" height="40" as="geometry"/>
                </mxCell>
                <mxCell id="13" value="d&lt;span style=&quot;font-size: 10px&quot;&gt;&lt;sub&gt;2&lt;/sub&gt;&lt;/span&gt;" style="rounded=0;whiteSpace=wrap;html=1;fillColor=#CCFFCC;strokeColor=#000000;strokeWidth=1;fontColor=#333333;" parent="1" vertex="1">
                    <mxGeometry x="320" y="360" width="40" height="40" as="geometry"/>
                </mxCell>
                <mxCell id="14" value="d&lt;sub&gt;4&lt;/sub&gt;" style="rounded=0;whiteSpace=wrap;html=1;fillColor=#FFCCCC;fontColor=#333333;strokeColor=#030303;" parent="1" vertex="1">
                    <mxGeometry x="360" y="360" width="40" height="40" as="geometry"/>
                </mxCell>
                <mxCell id="15" value="d&lt;sub&gt;5&lt;/sub&gt;" style="rounded=0;whiteSpace=wrap;html=1;fillColor=#FFCCCC;fontColor=#333333;strokeColor=#030303;" parent="1" vertex="1">
                    <mxGeometry x="440" y="360" width="40" height="40" as="geometry"/>
                </mxCell>
                <mxCell id="16" value="d&lt;sub&gt;9&lt;/sub&gt;" style="rounded=0;whiteSpace=wrap;html=1;fillColor=#CCFFCC;strokeColor=#000000;fontColor=#333333;" parent="1" vertex="1">
                    <mxGeometry x="400" y="360" width="40" height="40" as="geometry"/>
                </mxCell>
                <mxCell id="17" value="d&lt;sub&gt;10&lt;/sub&gt;" style="rounded=0;whiteSpace=wrap;html=1;fillColor=#FFCCCC;fontColor=#333333;strokeColor=#030303;" parent="1" vertex="1">
                    <mxGeometry x="480" y="360" width="40" height="40" as="geometry"/>
                </mxCell>
                <mxCell id="18" value="d&lt;sub&gt;3&lt;/sub&gt;" style="rounded=0;whiteSpace=wrap;html=1;fillColor=#CCFFCC;strokeColor=#000000;strokeWidth=3;fontColor=#333333;" parent="1" vertex="1">
                    <mxGeometry x="200" y="360" width="40" height="40" as="geometry"/>
                </mxCell>
                <mxCell id="19" value="d&lt;sub&gt;6&lt;/sub&gt;" style="rounded=0;whiteSpace=wrap;html=1;fillColor=#FFCCCC;fontColor=#333333;strokeColor=#000000;strokeWidth=3;" parent="1" vertex="1">
                    <mxGeometry x="120" y="360" width="40" height="40" as="geometry"/>
                </mxCell>
                <mxCell id="20" value="d&lt;sub&gt;6&lt;/sub&gt;" style="rounded=0;whiteSpace=wrap;html=1;fillColor=#CCFFCC;strokeColor=#000000;strokeWidth=3;fontColor=#333333;" parent="1" vertex="1">
                    <mxGeometry x="240" y="360" width="40" height="40" as="geometry"/>
                </mxCell>
                <mxCell id="21" value="d&lt;sub&gt;8&lt;/sub&gt;" style="rounded=0;whiteSpace=wrap;html=1;fillColor=#CCFFCC;fontColor=#333333;strokeColor=#000000;strokeWidth=3;" parent="1" vertex="1">
                    <mxGeometry x="160" y="360" width="40" height="40" as="geometry"/>
                </mxCell>
                <mxCell id="12" value="d&lt;sub&gt;1&lt;/sub&gt;" style="rounded=0;whiteSpace=wrap;html=1;fillColor=#FFCCCC;strokeColor=#000000;fontColor=#333333;strokeWidth=3;" parent="1" vertex="1">
                    <mxGeometry x="280" y="360" width="40" height="40" as="geometry"/>
                </mxCell>
                <mxCell id="22" value="d&lt;span style=&quot;font-size: 10px&quot;&gt;&lt;sub&gt;3&lt;/sub&gt;&lt;/span&gt;" style="rounded=0;whiteSpace=wrap;html=1;fillColor=#CCFFCC;strokeColor=#000000;strokeWidth=1;fontColor=#333333;" parent="1" vertex="1">
                    <mxGeometry x="160" y="430" width="40" height="40" as="geometry"/>
                </mxCell>
                <mxCell id="23" value="d&lt;sub&gt;7&lt;/sub&gt;" style="rounded=0;whiteSpace=wrap;html=1;fillColor=#CCFFCC;strokeColor=#000000;strokeWidth=1;fontColor=#333333;" parent="1" vertex="1">
                    <mxGeometry x="240" y="430" width="40" height="40" as="geometry"/>
                </mxCell>
                <mxCell id="24" value="d&lt;span style=&quot;font-size: 10px&quot;&gt;&lt;sub&gt;2&lt;/sub&gt;&lt;/span&gt;" style="rounded=0;whiteSpace=wrap;html=1;fillColor=#FFCCCC;strokeColor=#000000;strokeWidth=1;fontColor=#333333;" parent="1" vertex="1">
                    <mxGeometry x="200" y="470" width="40" height="40" as="geometry"/>
                </mxCell>
                <mxCell id="25" value="d&lt;sub&gt;6&lt;/sub&gt;" style="rounded=0;whiteSpace=wrap;html=1;fillColor=#FFCCCC;fontColor=#333333;strokeColor=#000000;strokeWidth=1;" parent="1" vertex="1">
                    <mxGeometry x="240" y="470" width="40" height="40" as="geometry"/>
                </mxCell>
                <mxCell id="26" value="d&lt;sub&gt;8&lt;/sub&gt;" style="rounded=0;whiteSpace=wrap;html=1;fillColor=#FFCCCC;fontColor=#333333;strokeColor=#000000;strokeWidth=1;" parent="1" vertex="1">
                    <mxGeometry x="280" y="470" width="40" height="40" as="geometry"/>
                </mxCell>
                <mxCell id="28" value="d&lt;sub&gt;1&lt;/sub&gt;" style="rounded=0;whiteSpace=wrap;html=1;fillColor=#FFCCCC;strokeColor=#000000;fontColor=#333333;strokeWidth=1;" parent="1" vertex="1">
                    <mxGeometry x="160" y="470" width="40" height="40" as="geometry"/>
                </mxCell>
                <mxCell id="30" value="d&lt;sub&gt;8&lt;/sub&gt;" style="rounded=0;whiteSpace=wrap;html=1;fillColor=#CCFFCC;fontColor=#333333;strokeColor=#000000;strokeWidth=1;" parent="1" vertex="1">
                    <mxGeometry x="280" y="430" width="40" height="40" as="geometry"/>
                </mxCell>
                <mxCell id="31" value="d&lt;sub&gt;6&lt;/sub&gt;" style="rounded=0;whiteSpace=wrap;html=1;fillColor=#CCFFCC;strokeColor=#000000;strokeWidth=1;fontColor=#333333;" parent="1" vertex="1">
                    <mxGeometry x="200" y="430" width="40" height="40" as="geometry"/>
                </mxCell>
                <mxCell id="32" value="d&lt;span style=&quot;font-size: 10px&quot;&gt;&lt;sub&gt;2&lt;/sub&gt;&lt;/span&gt;" style="rounded=0;whiteSpace=wrap;html=1;fillColor=#FFCCCC;strokeColor=#000000;strokeWidth=1;fontColor=#333333;" parent="1" vertex="1">
                    <mxGeometry x="473" y="430" width="40" height="40" as="geometry"/>
                </mxCell>
                <mxCell id="33" value="d&lt;sub&gt;1&lt;/sub&gt;" style="rounded=0;whiteSpace=wrap;html=1;fillColor=#FFCCCC;strokeColor=#000000;fontColor=#333333;strokeWidth=1;" parent="1" vertex="1">
                    <mxGeometry x="433" y="430" width="40" height="40" as="geometry"/>
                </mxCell>
                <mxCell id="36" value="d&lt;sub&gt;4&lt;/sub&gt;" style="rounded=0;whiteSpace=wrap;html=1;fillColor=#FFCCCC;fontColor=#333333;strokeColor=#030303;" parent="1" vertex="1">
                    <mxGeometry x="320" y="580" width="40" height="40" as="geometry"/>
                </mxCell>
                <mxCell id="37" value="d&lt;sub&gt;5&lt;/sub&gt;" style="rounded=0;whiteSpace=wrap;html=1;fillColor=#CCFFCC;fontColor=#333333;strokeColor=#030303;" parent="1" vertex="1">
                    <mxGeometry x="400" y="580" width="40" height="40" as="geometry"/>
                </mxCell>
                <mxCell id="38" value="d&lt;sub&gt;9&lt;/sub&gt;" style="rounded=0;whiteSpace=wrap;html=1;fillColor=#CCFFCC;strokeColor=#000000;fontColor=#333333;" parent="1" vertex="1">
                    <mxGeometry x="360" y="580" width="40" height="40" as="geometry"/>
                </mxCell>
                <mxCell id="39" value="d&lt;sub&gt;10&lt;/sub&gt;" style="rounded=0;whiteSpace=wrap;html=1;fillColor=#FFCCCC;fontColor=#333333;strokeColor=#030303;" parent="1" vertex="1">
                    <mxGeometry x="440" y="580" width="40" height="40" as="geometry"/>
                </mxCell>
                <mxCell id="40" value="d&lt;span style=&quot;font-size: 10px&quot;&gt;&lt;sub&gt;3&lt;/sub&gt;&lt;/span&gt;" style="rounded=0;whiteSpace=wrap;html=1;fillColor=#CCFFCC;strokeColor=#000000;strokeWidth=3;fontColor=#333333;" parent="1" vertex="1">
                    <mxGeometry x="120" y="580" width="40" height="40" as="geometry"/>
                </mxCell>
                <mxCell id="41" value="d&lt;sub&gt;6&lt;/sub&gt;" style="rounded=0;whiteSpace=wrap;html=1;fillColor=#FFCCCC;fontColor=#333333;strokeColor=#000000;strokeWidth=3;" parent="1" vertex="1">
                    <mxGeometry x="160" y="580" width="40" height="40" as="geometry"/>
                </mxCell>
                <mxCell id="42" value="d&lt;sub&gt;7&lt;/sub&gt;" style="rounded=0;whiteSpace=wrap;html=1;fillColor=#CCFFCC;strokeColor=#000000;strokeWidth=3;fontColor=#333333;" parent="1" vertex="1">
                    <mxGeometry x="200" y="580" width="40" height="40" as="geometry"/>
                </mxCell>
                <mxCell id="43" value="d&lt;sub&gt;8&lt;/sub&gt;" style="rounded=0;whiteSpace=wrap;html=1;fillColor=#FFCCCC;fontColor=#333333;strokeColor=#000000;strokeWidth=3;" parent="1" vertex="1">
                    <mxGeometry x="240" y="580" width="40" height="40" as="geometry"/>
                </mxCell>
                <mxCell id="45" value="d&lt;sub&gt;4&lt;/sub&gt;" style="rounded=0;whiteSpace=wrap;html=1;fillColor=#FFCCCC;fontColor=#333333;strokeColor=#030303;" parent="1" vertex="1">
                    <mxGeometry x="320" y="620" width="40" height="40" as="geometry"/>
                </mxCell>
                <mxCell id="46" value="d&lt;sub&gt;5&lt;/sub&gt;" style="rounded=0;whiteSpace=wrap;html=1;fillColor=#FFCCCC;fontColor=#333333;strokeColor=#030303;" parent="1" vertex="1">
                    <mxGeometry x="400" y="620" width="40" height="40" as="geometry"/>
                </mxCell>
                <mxCell id="47" value="d&lt;sub&gt;9&lt;/sub&gt;" style="rounded=0;whiteSpace=wrap;html=1;fillColor=#CCFFCC;strokeColor=#000000;fontColor=#333333;" parent="1" vertex="1">
                    <mxGeometry x="360" y="620" width="40" height="40" as="geometry"/>
                </mxCell>
                <mxCell id="48" value="d&lt;sub&gt;10&lt;/sub&gt;" style="rounded=0;whiteSpace=wrap;html=1;fillColor=#FFCCCC;fontColor=#333333;strokeColor=#030303;" parent="1" vertex="1">
                    <mxGeometry x="440" y="620" width="40" height="40" as="geometry"/>
                </mxCell>
                <mxCell id="49" value="d&lt;sub&gt;3&lt;/sub&gt;" style="rounded=0;whiteSpace=wrap;html=1;fillColor=#CCFFCC;strokeColor=#000000;strokeWidth=3;fontColor=#333333;" parent="1" vertex="1">
                    <mxGeometry x="200" y="620" width="40" height="40" as="geometry"/>
                </mxCell>
                <mxCell id="50" value="d&lt;sub&gt;6&lt;/sub&gt;" style="rounded=0;whiteSpace=wrap;html=1;fillColor=#FFCCCC;fontColor=#333333;strokeColor=#000000;strokeWidth=3;" parent="1" vertex="1">
                    <mxGeometry x="120" y="620" width="40" height="40" as="geometry"/>
                </mxCell>
                <mxCell id="51" value="d&lt;sub&gt;6&lt;/sub&gt;" style="rounded=0;whiteSpace=wrap;html=1;fillColor=#CCFFCC;strokeColor=#000000;strokeWidth=3;fontColor=#333333;" parent="1" vertex="1">
                    <mxGeometry x="240" y="620" width="40" height="40" as="geometry"/>
                </mxCell>
                <mxCell id="52" value="d&lt;sub&gt;8&lt;/sub&gt;" style="rounded=0;whiteSpace=wrap;html=1;fillColor=#CCFFCC;fontColor=#333333;strokeColor=#000000;strokeWidth=3;" parent="1" vertex="1">
                    <mxGeometry x="160" y="620" width="40" height="40" as="geometry"/>
                </mxCell>
                <mxCell id="54" value="d&lt;sub&gt;11&lt;/sub&gt;" style="rounded=0;whiteSpace=wrap;html=1;fillColor=#FFCCCC;fontColor=#333333;strokeColor=#030303;" parent="1" vertex="1">
                    <mxGeometry x="480" y="580" width="40" height="40" as="geometry"/>
                </mxCell>
                <mxCell id="55" value="d&lt;sub&gt;15&lt;/sub&gt;" style="rounded=0;whiteSpace=wrap;html=1;fillColor=#FFCCCC;fontColor=#333333;strokeColor=#030303;" parent="1" vertex="1">
                    <mxGeometry x="480" y="620" width="40" height="40" as="geometry"/>
                </mxCell>
                <mxCell id="34" value="d&lt;sub&gt;1&lt;/sub&gt;" style="rounded=0;whiteSpace=wrap;html=1;fillColor=#CCFFCC;strokeColor=#000000;fontColor=#333333;strokeWidth=3;" parent="1" vertex="1">
                    <mxGeometry x="280" y="580" width="40" height="40" as="geometry"/>
                </mxCell>
                <mxCell id="44" value="d&lt;span style=&quot;font-size: 10px&quot;&gt;&lt;sub&gt;2&lt;/sub&gt;&lt;/span&gt;" style="rounded=0;whiteSpace=wrap;html=1;fillColor=#CCFFCC;strokeColor=#000000;strokeWidth=3;fontColor=#333333;" parent="1" vertex="1">
                    <mxGeometry x="280" y="620" width="40" height="40" as="geometry"/>
                </mxCell>
                <mxCell id="58" value="&lt;span&gt;q&lt;sub style=&quot;font-size: 16px&quot;&gt;1&lt;/sub&gt;&lt;/span&gt;" style="text;html=1;align=center;verticalAlign=middle;whiteSpace=wrap;rounded=0;fontColor=#000000;fontSize=16;fontStyle=2" parent="1" vertex="1">
                    <mxGeometry x="70" y="325" width="60" height="30" as="geometry"/>
                </mxCell>
                <mxCell id="59" value="&lt;span&gt;q&lt;sub style=&quot;font-size: 16px&quot;&gt;2&lt;/sub&gt;&lt;/span&gt;" style="text;html=1;align=center;verticalAlign=middle;whiteSpace=wrap;rounded=0;fontColor=#000000;fontSize=16;fontStyle=2" parent="1" vertex="1">
                    <mxGeometry x="70" y="365" width="60" height="30" as="geometry"/>
                </mxCell>
                <mxCell id="60" value="q&lt;sub style=&quot;font-size: 16px;&quot;&gt;2&lt;/sub&gt;" style="text;html=1;align=center;verticalAlign=middle;whiteSpace=wrap;rounded=0;fontColor=#000000;fontSize=16;fontStyle=2" parent="1" vertex="1">
                    <mxGeometry x="70" y="625" width="60" height="30" as="geometry"/>
                </mxCell>
                <mxCell id="61" value="&lt;span&gt;q&lt;sub style=&quot;font-size: 16px&quot;&gt;1&lt;/sub&gt;&lt;/span&gt;" style="text;html=1;align=center;verticalAlign=middle;whiteSpace=wrap;rounded=0;fontColor=#000000;fontSize=16;fontStyle=2" parent="1" vertex="1">
                    <mxGeometry x="70" y="585" width="60" height="30" as="geometry"/>
                </mxCell>
                <mxCell id="62" value="&lt;span&gt;Positive&lt;/span&gt;" style="text;html=1;align=left;verticalAlign=middle;whiteSpace=wrap;rounded=0;fontColor=#000000;fontSize=16;fontStyle=2" parent="1" vertex="1">
                    <mxGeometry x="87" y="435" width="60" height="30" as="geometry"/>
                </mxCell>
                <mxCell id="63" value="&lt;span&gt;Negative&lt;/span&gt;" style="text;html=1;align=left;verticalAlign=middle;whiteSpace=wrap;rounded=0;fontColor=#000000;fontSize=16;fontStyle=2" parent="1" vertex="1">
                    <mxGeometry x="87" y="475" width="60" height="30" as="geometry"/>
                </mxCell>
                <mxCell id="64" value="&lt;span&gt;Pruned&lt;/span&gt;" style="text;html=1;align=left;verticalAlign=middle;whiteSpace=wrap;rounded=0;fontColor=#000000;fontSize=16;fontStyle=2" parent="1" vertex="1">
                    <mxGeometry x="360" y="435" width="60" height="30" as="geometry"/>
                </mxCell>
                <mxCell id="65" value="Retrieved (top-5)" style="text;html=1;align=left;verticalAlign=middle;whiteSpace=wrap;rounded=0;fontColor=#000000;fontSize=16;" parent="1" vertex="1">
                    <mxGeometry x="160" y="290" width="130" height="30" as="geometry"/>
                </mxCell>
                <mxCell id="66" value="First step" style="text;html=1;align=left;verticalAlign=middle;whiteSpace=wrap;rounded=0;fontColor=#000000;fontSize=16;" parent="1" vertex="1">
                    <mxGeometry x="-10" y="340" width="130" height="30" as="geometry"/>
                </mxCell>
                <mxCell id="67" value="Retrieved (top-5)" style="text;html=1;align=left;verticalAlign=middle;whiteSpace=wrap;rounded=0;fontColor=#000000;fontSize=16;" parent="1" vertex="1">
                    <mxGeometry x="160" y="550" width="130" height="30" as="geometry"/>
                </mxCell>
                <mxCell id="68" value="Second step" style="text;html=1;align=left;verticalAlign=middle;whiteSpace=wrap;rounded=0;fontColor=#000000;fontSize=16;" parent="1" vertex="1">
                    <mxGeometry x="-10" y="600" width="130" height="30" as="geometry"/>
                </mxCell>
                <mxCell id="70" value="&lt;font style=&quot;font-size: 13px;&quot;&gt;Low similarity&lt;/font&gt;" style="text;html=1;align=left;verticalAlign=middle;whiteSpace=wrap;rounded=0;fontColor=#000000;fontSize=13;" parent="1" vertex="1">
                    <mxGeometry x="440" y="656" width="140" height="30" as="geometry"/>
                </mxCell>
                <mxCell id="71" value="&lt;font style=&quot;font-size: 13px;&quot;&gt;High similarity&lt;/font&gt;" style="text;html=1;align=left;verticalAlign=middle;whiteSpace=wrap;rounded=0;fontColor=#000000;fontSize=13;" parent="1" vertex="1">
                    <mxGeometry x="120" y="656" width="120" height="30" as="geometry"/>
                </mxCell>
            </root>
        </mxGraphModel>
    </diagram>
</mxfile>